<svg id="Layer_1" enable-background="new 0 0 510 510" height="512" viewBox="0 0 510 510" width="512" xmlns="http://www.w3.org/2000/svg"><g><path d="m.441 255 24.748 24.749h.001c34.114 34.114 74.482 59.695 118.513 75.705-51.549-57.058-51.678-143.708-.001-200.908-44.029 16.01-84.397 41.591-118.512 75.705z"/><path d="m366.297 154.546c51.545 57.053 51.683 143.703-.001 200.909 44.03-16.01 84.399-41.591 118.514-75.706l24.75-24.749-24.75-24.749c-34.115-34.114-74.483-59.695-118.513-75.705z"/><path d="m255 225c-16.542 0-30 13.458-30 30 1.648 39.799 58.358 39.788 60 0 0-16.542-13.458-30-30-30z"/><path d="m375 255c0-66.169-53.832-120-120-120-159.196 6.591-159.15 233.433.001 240 66.167 0 119.999-53.832 119.999-120zm-120 60c-33.084 0-60-26.916-60-60 3.296-79.598 116.716-79.575 120 0 0 33.084-26.916 60-60 60z"/><path d="m30 87.42v38.794c7.187 8.884-17.166-21.221 30 37.087 9.729-6.421 19.739-12.337 30-17.736v-1.778l-30-30v-26.367c46.977-17.385 35.719-86.462-15.001-87.42-50.726.962-61.97 70.044-14.999 87.42z"/><path d="m480 422.58v-38.793l-30-30v-7.087c-9.729 6.421-19.739 12.336-30 17.735v1.777l30 30v26.367c-46.977 17.384-35.719 86.463 15.001 87.42 50.727-.96 61.969-70.044 14.999-87.419z"/><path d="m480 126.213v-38.793c46.977-17.385 35.719-86.462-15.001-87.42-50.727.962-61.969 70.044-14.999 87.42v26.367l-30 30v1.778c10.261 5.399 20.271 11.315 30 17.736 47.102-58.229 22.75-28.125 30-37.088z"/><path d="m330 112.977c10.134 2.168 20.143 4.768 30 7.805v-9.568l30-30v-81.214h-30v68.787l-30 30z"/><path d="m300 81.213 30-30v-51.213h-30v38.787l-30 30v36.606c10.081.417 20.089 1.24 30 2.486z"/><path d="m210 107.879c9.911-1.246 19.919-2.069 30-2.486v-36.606l-30-30v-38.787h-30v51.213l30 30z"/><path d="m150 120.782c9.857-3.038 19.866-5.637 30-7.805v-14.19l-30-30v-68.787h-30v81.213l30 30z"/><path d="m60 353.787-30 30v38.793c-46.978 17.385-35.719 86.462 15.001 87.42 50.727-.961 61.97-70.044 14.999-87.42v-26.367l30-30v-1.778c-10.261-5.399-20.271-11.314-30-17.735z"/><path d="m180 397.023c-10.134-2.168-20.143-4.768-30-7.805v9.568l-30 30v81.214h30v-68.787l30-30z"/><path d="m210 428.787-30 30v51.213h30v-38.787l30-30v-36.605c-10.081-.417-20.089-1.24-30-2.486z"/><path d="m300 402.122c-9.911 1.246-19.919 2.069-30 2.486v36.605l30 30v38.787h30v-51.213l-30-30z"/><path d="m360 389.219c-9.857 3.038-19.866 5.637-30 7.805v14.189l30 30v68.787h30v-81.213l-30-30z"/></g></svg>